<?xml version="1.0" encoding="utf-8"?>
<!-- Generator: Adobe Illustrator 27.5.0, SVG Export Plug-In . SVG Version: 6.00 Build 0)  -->
<svg version="1.1" xmlns="http://www.w3.org/2000/svg" xmlns:xlink="http://www.w3.org/1999/xlink" x="0px" y="0px"
	 viewBox="0 0 3710 3710" style="enable-background:new 0 0 3710 3710;" xml:space="preserve">
<g id="Background">
	<g>
		<g>
			<rect style="fill:#FFFFFF;" width="3710" height="3710"/>
		</g>
	</g>
</g>
<g id="Illustration">
	<g>
		<linearGradient id="SVGID_1_" gradientUnits="userSpaceOnUse" x1="3417.6487" y1="3238.144" x2="1375.4839" y2="1451.2513">
			<stop  offset="0" style="stop-color:#DAE3FE"/>
			<stop  offset="1" style="stop-color:#E9EFFD"/>
		</linearGradient>
		<path style="fill:url(#SVGID_1_);" d="M3070.587,2310.131c-263.93,621.448-966.978,969.588-1576.663,875.679
			c-99.208-15.281-371.19-60.801-611.992-275.546c-463.56-413.401-562.696-1231.99-188.756-1808.869
			c272.163-419.867,760.042-657.875,1223.623-645.969c99.855,2.564,482.543,18.369,818.859,295.688
			c49.398,40.733,158.351,137.525,256.543,291.079C3222.774,1402.767,3242.593,1905.125,3070.587,2310.131z"/>
		<g>
			
				<ellipse transform="matrix(0.0439 -0.999 0.999 0.0439 -224.881 3580.1765)" style="fill:#91B3FA;" cx="1757.958" cy="1907.573" rx="1103.521" ry="1191.142"/>
			<g style="opacity:0.24;">
				<ellipse style="fill:#BDD0FB;" cx="1693.49" cy="1827.956" rx="934.677" ry="882.972"/>
			</g>
			<g style="opacity:0.68;">
				<path style="fill:#FFFFFF;" d="M2062.255,1912.903c-0.286,194.63-13.634,389.658-47.933,581.533
					c-8.684,47.929-18.75,95.628-30.745,142.875c-12.031,47.228-25.921,94.046-42.928,139.821
					c-17.149,45.656-37.053,90.654-64.044,131.781c-13.601,20.413-29.028,39.973-48.067,56.063
					c-9.516,7.993-19.967,15.083-31.463,20.277c-11.472,5.16-24.01,8.427-36.734,8.654c-12.708,0.372-25.435-2.116-37.133-6.827
					c-11.743-4.666-22.448-11.435-32.194-19.165c-19.493-15.589-35.26-34.934-49.104-55.186
					c-27.469-40.833-47.644-85.741-64.972-131.325c-17.222-45.696-31.248-92.477-43.384-139.676
					c-12.114-47.215-22.282-94.893-31.037-142.807c-17.473-95.848-29.391-192.618-37.432-289.653
					c-7.984-97.052-11.986-194.413-12.478-291.789c-0.24-48.682,1.089-97.355,2.82-145.999c1.823-48.643,4.502-97.254,8.083-145.8
					c7.201-97.079,17.955-193.942,33.943-290.009c8.022-48.022,17.376-95.842,28.627-143.238
					c11.28-47.38,24.389-94.384,40.649-140.37c8.173-22.972,17.108-45.697,27.299-67.889c10.175-22.187,21.562-43.889,34.945-64.408
					c13.414-20.428,28.833-39.928,48.034-55.537c9.599-7.736,20.175-14.468,31.761-19.028c11.54-4.619,24.062-6.958,36.517-6.485
					c12.463,0.355,24.749,3.462,36.085,8.455c11.351,5.016,21.782,11.838,31.358,19.571c19.153,15.565,35.006,34.594,49.069,54.578
					c27.96,40.245,49.038,84.628,67.297,129.788c18.125,45.283,33.09,91.739,46.125,138.675
					c12.989,46.958,23.988,94.44,33.506,142.199C2046.392,1523.188,2061.692,1718.239,2062.255,1912.903z M2047.849,1912.903
					c0.178-96.979-3.508-193.984-11.567-290.627c-7.946-96.639-19.983-193.001-37.917-288.295
					c-8.955-47.641-19.385-95.011-31.795-141.858c-12.454-46.822-26.829-93.168-44.33-138.313
					c-17.627-45.018-38.068-89.246-65.193-129.205c-13.635-19.839-29.015-38.681-47.472-54.01
					c-9.224-7.618-19.24-14.313-30.078-19.244c-10.826-4.871-22.487-8.064-34.347-8.375c-11.852-0.376-23.688,2.009-34.651,6.52
					c-11.002,4.467-21.102,11.039-30.31,18.627c-18.422,15.305-33.348,34.557-46.322,54.803
					c-12.949,20.334-23.972,41.9-33.803,63.973c-9.848,22.078-18.465,44.714-26.328,67.602
					c-15.642,45.824-28.168,92.703-38.875,139.963c-10.679,47.278-19.471,94.985-26.936,142.892
					c-14.876,95.838-24.538,192.461-30.654,289.262c-6.178,96.814-8.311,193.847-8.136,290.838
					c-0.256,96.974,2.984,193.977,10.191,290.689c7.265,96.696,18.392,193.149,35.045,288.654
					c8.345,47.742,18.093,95.241,29.771,142.25c11.697,46.992,25.271,93.544,41.977,138.927
					c16.798,45.262,36.44,89.793,62.986,129.901c13.36,19.886,28.561,38.748,46.984,53.701c9.206,7.419,19.225,13.839,30.055,18.234
					c10.798,4.407,22.383,6.856,33.99,6.465c11.604-0.299,23.037-3.363,33.652-8.233c10.63-4.903,20.436-11.645,29.441-19.334
					c18.024-15.469,32.901-34.568,46.026-54.625c26.082-40.425,45.441-85.055,62.05-130.393
					c16.482-45.467,29.905-92.057,41.484-139.078c11.546-47.041,21.177-94.562,29.439-142.317
					c16.54-95.523,27.53-191.988,34.837-288.683C2044.468,2106.914,2047.887,2009.902,2047.849,1912.903z"/>
				<path style="fill:#FFFFFF;" d="M2553.247,1912.903c-0.673,125.337-16.782,250.729-50.335,371.597
					c-34.138,120.591-85.6,236.602-155.467,340.757c-34.937,52.021-74.518,100.987-118.745,145.413
					c-44.208,44.413-93.099,84.27-146.171,117.673c-53.12,33.274-110.493,59.91-170.551,77.981
					c-60.023,18.115-122.683,27.564-185.4,27.626c-62.716-0.006-125.394-9.398-185.449-27.463
					c-60.09-18.021-117.51-44.615-170.685-77.855c-53.126-33.368-102.09-73.19-146.37-117.585
					c-44.3-44.407-83.959-93.363-118.975-145.383c-70.008-104.169-121.577-220.231-155.875-340.881
					c-16.882-60.436-29.428-122.065-37.739-184.243c-8.267-62.189-12.421-124.901-12.706-187.637
					c0.324-62.737,4.517-125.444,12.822-187.622c8.351-62.168,20.944-123.779,37.867-184.191
					c34.384-120.601,86.033-236.584,156.086-340.645c35.031-51.973,74.696-100.875,118.99-145.222
					c44.28-44.327,93.209-84.112,146.326-117.375c53.158-33.155,110.565-59.551,170.551-77.566
					c59.947-18.09,122.524-27.525,185.157-27.586c62.634,0.114,125.195,9.601,185.113,27.737
					c59.955,18.063,117.312,44.512,170.415,77.702c53.06,33.3,101.919,73.118,146.125,117.464
					c44.221,44.367,83.808,93.279,118.76,145.252c69.911,104.047,121.456,219.979,155.677,340.522
					C2536.295,1662.196,2552.489,1787.566,2553.247,1912.903z M2536.733,1912.903c-0.181-123.914-15.616-247.961-48.312-367.577
					c-32.876-119.431-82.378-234.732-150.528-338.423c-34.056-51.792-72.736-100.61-116.059-144.985
					c-43.339-44.307-91.21-84.393-143.565-117.71c-52.418-33.131-109.024-59.799-168.377-77.836
					c-59.324-18.051-121.262-27.539-183.314-27.746c-62.052,0.259-123.974,9.8-183.268,27.896
					c-59.323,18.086-115.88,44.806-168.242,77.972c-52.297,33.355-100.097,73.474-143.364,117.8
					c-43.249,44.396-81.851,93.223-115.828,145.016c-68.008,103.677-117.403,218.926-150.118,338.298
					c-16.298,59.754-28.098,120.684-36.094,182.067c-8.015,61.391-11.97,123.299-12.108,185.227
					c0.177,61.927,4.171,123.83,12.224,185.211c8.036,61.372,19.884,122.284,36.222,182.014
					c32.799,119.324,82.276,234.495,150.33,338.064c33.99,51.745,72.598,100.518,115.843,144.854
					c43.266,44.258,91.032,84.34,143.32,117.59c52.347,33.081,108.889,59.604,168.108,77.683
					c59.187,18.122,121.008,27.705,182.976,28.02c61.97-0.257,123.807-9.784,183.026-27.855
					c59.251-18.03,115.84-44.51,168.241-77.557c52.343-33.217,100.18-73.263,143.519-117.502
					c43.317-44.316,82.003-93.08,116.073-144.824c68.195-103.583,117.78-218.805,150.738-338.188
					C2520.946,2160.842,2536.467,2036.817,2536.733,1912.903z"/>
				<path style="fill:#FFFFFF;" d="M761.924,1485.13l248.259-2.006l248.259-1.136l496.518-0.917l496.518,1.009l248.259,1.241
					l248.259,2.165c0.403,0.004,0.726,0.333,0.722,0.736c-0.003,0.398-0.326,0.719-0.722,0.722l-248.259,2.165l-248.259,1.241
					l-496.518,1.01l-496.518-0.917l-248.259-1.136l-248.259-2.005c-0.599-0.005-1.082-0.495-1.077-1.095
					C760.852,1485.614,761.333,1485.135,761.924,1485.13z"/>
				<path style="fill:#FFFFFF;" d="M1049.934,1069.317c58.752-0.931,117.504-1.33,176.256-2.005l176.256-1.136
					c58.753-0.484,117.504-0.432,176.257-0.582l176.256-0.335l352.512,1.009l176.257,1.241
					c58.753,0.737,117.504,1.168,176.257,2.165c0.402,0.007,0.723,0.339,0.716,0.741c-0.006,0.394-0.326,0.71-0.716,0.716
					c-58.753,0.998-117.504,1.429-176.257,2.165l-176.257,1.241l-352.512,1.009l-176.256-0.335
					c-58.753-0.15-117.504-0.097-176.257-0.582l-176.256-1.136c-58.752-0.675-117.504-1.074-176.256-2.005
					c-0.599-0.01-1.078-0.503-1.069-1.103C1048.874,1069.798,1049.35,1069.327,1049.934,1069.317z"/>
				<path style="fill:#FFFFFF;" d="M675.651,1900.942l269.827-1.999l269.827-1.143l539.654-0.917l539.654,1.01l269.827,1.242
					l269.827,2.164c0.403,0.003,0.727,0.332,0.724,0.734c-0.003,0.399-0.326,0.72-0.724,0.724l-269.827,2.164l-269.827,1.242
					l-539.654,1.009l-539.654-0.917l-269.827-1.143l-269.827-1.999c-0.599-0.005-1.082-0.495-1.078-1.094
					C674.578,1901.426,675.059,1900.947,675.651,1900.942z"/>
				<path style="fill:#FFFFFF;" d="M761.924,2316.754l248.259-2.005l248.259-1.136l496.518-0.917l496.518,1.01l248.259,1.241
					l248.259,2.165c0.403,0.004,0.726,0.333,0.722,0.735c-0.003,0.398-0.326,0.719-0.722,0.722l-248.259,2.165l-248.259,1.242
					l-496.518,1.01l-496.518-0.917l-248.259-1.136l-248.259-2.006c-0.599-0.005-1.082-0.495-1.077-1.094
					C760.852,2317.238,761.333,2316.759,761.924,2316.754z"/>
				<path style="fill:#FFFFFF;" d="M2495.508,2737.459h-1410.05c-2.104,0-3.806-1.704-3.806-3.806c0-2.102,1.702-3.806,3.806-3.806
					h1410.05c2.104,0,3.806,1.704,3.806,3.806C2499.314,2735.755,2497.612,2737.459,2495.508,2737.459z"/>
			</g>
		</g>
		<g>
			
				<linearGradient id="SVGID_00000072973433626466016740000000123672075913246126_" gradientUnits="userSpaceOnUse" x1="2402.7578" y1="428.8736" x2="1618.4596" y2="1976.1549">
				<stop  offset="0" style="stop-color:#FF928E"/>
				<stop  offset="1" style="stop-color:#FE7062"/>
			</linearGradient>
			<path style="fill:url(#SVGID_00000072973433626466016740000000123672075913246126_);" d="M2317.104,1016.985H2059.37
				c-19.711,0-35.69-15.979-35.69-35.69V722.869c0-18.595,14.277-34.074,32.811-35.574l274.6-22.225
				c21.632-1.751,39.807,16.051,38.505,37.715l-16.865,280.651C2351.598,1002.281,2335.985,1016.985,2317.104,1016.985z"/>
			<path style="opacity:0.73;fill:#FFFFFF;" d="M2096.112,966.685c-6.921,0-13.668-2.656-18.729-7.425
				c-5.454-5.135-8.582-12.378-8.582-19.869V773.706c0-4.673,3.789-8.462,8.462-8.462c4.673,0,8.462,3.789,8.462,8.462v165.686
				c0,2.888,1.157,5.569,3.26,7.548c2.099,1.979,4.85,2.958,7.726,2.805l196.346-11.688c5.47-0.331,9.759-4.879,9.759-10.358
				V765.025c0-2.967-1.211-5.694-3.409-7.685c-2.198-1.995-5.044-2.946-7.99-2.636L2128.09,770.88
				c-5.396,0.533-7.696,4.425-8.441,6.069c-0.74,1.649-2.119,5.954,1.062,10.341l62.292,85.97c1.955,2.698,4.987,4.26,8.317,4.289
				c0,0,0.062,0,0.091,0c3.293,0,6.314-1.508,8.292-4.148l68.618-91.42c2.801-3.731,8.106-4.499,11.845-1.69
				c3.739,2.805,4.495,8.111,1.69,11.846l-68.617,91.424c-5.264,7.007-13.139,11.106-22.059,10.911
				c-8.763-0.075-16.737-4.186-21.877-11.28l-62.292-85.97c-5.809-8.011-6.854-18.184-2.797-27.211
				c4.057-9.028,12.362-14.998,22.207-15.973l163.326-16.175c7.668-0.744,15.32,1.768,21.022,6.933
				c5.701,5.165,8.97,12.535,8.97,20.228v162.673c0,14.419-11.276,26.388-25.674,27.248l-196.342,11.688
				C2097.186,966.668,2096.645,966.685,2096.112,966.685z"/>
		</g>
		<g>
			
				<linearGradient id="SVGID_00000170247080088648621120000008370595451264403371_" gradientUnits="userSpaceOnUse" x1="1964.7361" y1="793.3995" x2="1281.4698" y2="1801.3854">
				<stop  offset="0" style="stop-color:#FF928E"/>
				<stop  offset="1" style="stop-color:#FE7062"/>
			</linearGradient>
			<path style="fill:url(#SVGID_00000170247080088648621120000008370595451264403371_);" d="M1947.293,986.781v223.339
				c0,26.536-20.851,48.389-47.357,49.634l-279.292,13.123c-28.327,1.33-52.021-21.277-52.021-49.635V986.781
				c0-27.443,22.247-49.689,49.689-49.689h279.292C1925.045,937.092,1947.293,959.338,1947.293,986.781z"/>
			<path style="opacity:0.73;fill:#FFFFFF;" d="M1615.924,1106.264c-9.436-55.337,10.576-86.087,29.027-102.145
				c34.724-30.215,96.641-37.202,157.769-17.81c59.901,19.018,102.132,74.073,94.136,122.73
				c-3.168,19.295-19.564,61.475-101.691,68.17c17.22,8.272,40.596,18.484,62.044,24.496l0.012,0.005
				c4.008,1.131,6.533,4.944,6.005,9.072c-0.526,4.1-3.911,7.137-8.035,7.22c-2.416,0.048-5.465,0.092-9.075,0.092
				C1795.032,1218.094,1633.574,1209.798,1615.924,1106.264z M1853.169,1216.051h0.005H1853.169z M1854.863,1203.098h0.019H1854.863
				z M1766.008,1163.155c67.717,1.421,110.036-19.368,116.142-56.531c6.725-40.938-31.715-89.527-83.939-106.109
				c-46.115-14.628-108.354-15.724-143.479,14.851c-22.642,19.702-30.755,49.447-24.117,88.395
				c13.079,76.733,120.348,94.645,183.753,98.468c-27.853-11.648-50.755-24.351-52.125-25.112l-26.019-14.506L1766.008,1163.155z"/>
		</g>
		<g>
			
				<linearGradient id="SVGID_00000156567130697348632620000004841963755276522939_" gradientUnits="userSpaceOnUse" x1="1697.4296" y1="1218.3452" x2="290.4792" y2="2147.4644">
				<stop  offset="0" style="stop-color:#FF928E"/>
				<stop  offset="1" style="stop-color:#FE7062"/>
			</linearGradient>
			<path style="fill:url(#SVGID_00000156567130697348632620000004841963755276522939_);" d="M483.272,1385.629l1221.276-5.341
				c11.679-0.104,21.185,9.37,21.119,21.05l-2.606,427.482c-0.067,11.757-9.781,21.154-21.534,20.803
				c-107.69-3.21-1211.467-17.377-1232.573-16.494c-20.857,0.873-9.525-336.714-6.412-427.303
				C462.926,1394.626,472.066,1385.729,483.272,1385.629z"/>
			<path style="opacity:0.73;fill:#FFFFFF;" d="M1702.164,1833.091l-0.143-0.004c-68.824-2.053-728.403-10.286-1045.38-14.242
				c-92.683-1.156-158.474-1.976-176.015-2.223l-1.635-0.023l-0.286-1.612c-7.491-42.261-7.363-183.549,0.372-408.593
				c0.081-2.347,1.991-4.203,4.345-4.223l1221.283-5.336c1.203,0,2.316,0.46,3.144,1.295c0.837,0.835,1.281,1.914,1.274,3.113
				l-2.607,427.486C1706.501,1831.134,1704.549,1833.091,1702.164,1833.091z M482.329,1812.685
				c19.731,0.27,84.368,1.079,174.361,2.2c316.988,3.956,976.59,12.189,1045.449,14.242l0.116,0.008
				c0.12-0.004,0.3-0.197,0.301-0.429l2.607-427.486l-0.449-2.405l0.009,1.98l-1221.274,5.336c-0.224,0.004-0.406,0.174-0.414,0.402
				C475.405,1628.502,475.165,1768.785,482.329,1812.685z"/>
			<path style="opacity:0.64;fill:#FFFFFF;" d="M535.526,1496.026L535.526,1496.026c0,11.56,3.857,20.932,8.615,20.932h467.811
				c4.758,0,8.614-9.371,8.614-20.932l0,0c0-11.56-3.857-20.932-8.614-20.932H544.141
				C539.383,1475.095,535.526,1484.466,535.526,1496.026z"/>
			<path style="opacity:0.64;fill:#FFFFFF;" d="M535.526,1567.382L535.526,1567.382c0,11.56,3.857,20.931,8.615,20.931h467.811
				c4.758,0,8.614-9.371,8.614-20.931l0,0c0-11.56-3.857-20.932-8.614-20.932H544.141
				C539.383,1546.451,535.526,1555.822,535.526,1567.382z"/>
			<path style="opacity:0.64;fill:#FFFFFF;" d="M535.526,1638.738L535.526,1638.738c0,11.56,3.857,20.932,8.615,20.932h467.811
				c4.758,0,8.614-9.371,8.614-20.932l0,0c0-11.56-3.857-20.931-8.614-20.931H544.141
				C539.383,1617.806,535.526,1627.177,535.526,1638.738z"/>
			<path style="opacity:0.64;fill:#FFFFFF;" d="M535.526,1710.093L535.526,1710.093c0,11.56,3.857,20.931,8.615,20.931h467.811
				c4.758,0,8.614-9.371,8.614-20.931l0,0c0-11.56-3.857-20.932-8.614-20.932H544.141
				C539.383,1689.162,535.526,1698.533,535.526,1710.093z"/>
			<g>
				
					<ellipse transform="matrix(0.7071 -0.7071 0.7071 0.7071 -734.646 1247.9531)" style="fill:#FFFFFF;" cx="1139.09" cy="1510.773" rx="81.376" ry="81.376"/>
				
					<ellipse transform="matrix(0.7071 -0.7071 0.7071 0.7071 -675.4102 1390.9608)" style="fill:#FFFFFF;" cx="1341.333" cy="1510.773" rx="81.376" ry="81.376"/>
				
					<ellipse transform="matrix(0.7071 -0.7071 0.7071 0.7071 -618.058 1534.7488)" style="fill:#FFFFFF;" cx="1543.577" cy="1513.436" rx="81.376" ry="81.376"/>
				<g>
					
						<linearGradient id="SVGID_00000124859674574849795230000016899235754449881016_" gradientUnits="userSpaceOnUse" x1="1233.2338" y1="1002.0037" x2="1149.7988" y2="1455.2594">
						<stop  offset="0" style="stop-color:#FF928E"/>
						<stop  offset="1" style="stop-color:#FE7062"/>
					</linearGradient>
					<path style="fill:url(#SVGID_00000124859674574849795230000016899235754449881016_);" d="M1187.443,1493.574
						c2.519,6.125,3.917,12.829,3.917,19.862c0,28.868-23.402,52.27-52.27,52.27c-28.868,0-52.271-23.402-52.271-52.27
						s23.402-52.27,52.271-52.27c0.884,0,1.763,0.023,2.636,0.067v-13.25c-0.875-0.035-1.753-0.057-2.636-0.057
						c-36.181,0-65.511,29.33-65.511,65.511c0,36.181,29.33,65.511,65.511,65.511c36.18,0,65.511-29.33,65.511-65.511
						c0-8.909-1.782-17.4-5.003-25.143L1187.443,1493.574z"/>
					
						<linearGradient id="SVGID_00000070110268966769073830000003133696014219050655_" gradientUnits="userSpaceOnUse" x1="1417.3793" y1="1035.9012" x2="1333.9443" y2="1489.1569">
						<stop  offset="0" style="stop-color:#FF928E"/>
						<stop  offset="1" style="stop-color:#FE7062"/>
					</linearGradient>
					<path style="fill:url(#SVGID_00000070110268966769073830000003133696014219050655_);" d="M1368.297,1557.66
						c-8.064,5.09-17.61,8.046-27.851,8.046c-28.868,0-52.271-23.402-52.271-52.27s23.402-52.27,52.271-52.27
						c0.884,0,1.763,0.023,2.636,0.067v-13.25c-0.875-0.035-1.753-0.057-2.636-0.057c-36.181,0-65.511,29.33-65.511,65.511
						c0,36.181,29.33,65.511,65.511,65.511c12.627,0,24.417-3.576,34.42-9.765L1368.297,1557.66z"/>
					
						<linearGradient id="SVGID_00000115478642979039772450000015083220123363351977_" gradientUnits="userSpaceOnUse" x1="1622.025" y1="1073.5723" x2="1538.5901" y2="1526.8281">
						<stop  offset="0" style="stop-color:#FF928E"/>
						<stop  offset="1" style="stop-color:#FE7062"/>
					</linearGradient>
					<path style="fill:url(#SVGID_00000115478642979039772450000015083220123363351977_);" d="M1587.196,1542.825
						c-9.407,13.811-25.256,22.882-43.227,22.882c-28.868,0-52.27-23.402-52.27-52.27s23.402-52.27,52.27-52.27
						c0.884,0,1.763,0.023,2.637,0.067v-13.25c-0.875-0.035-1.753-0.057-2.637-0.057c-36.181,0-65.511,29.33-65.511,65.511
						c0,36.181,29.33,65.511,65.511,65.511c22.382,0,42.139-11.227,53.956-28.355L1587.196,1542.825z"/>
				</g>
				<g style="opacity:0.64;">
					<path style="fill:#FFFFFF;" d="M1205.394,1626.62h-132.609c-8.324,0-15.072,6.748-15.072,15.071s6.748,15.071,15.072,15.071
						h132.609c8.324,0,15.072-6.747,15.072-15.071S1213.718,1626.62,1205.394,1626.62z"/>
					<path style="fill:#FFFFFF;" d="M1407.638,1626.62h-132.61c-8.323,0-15.071,6.748-15.071,15.071s6.748,15.071,15.071,15.071
						h132.61c8.324,0,15.071-6.747,15.071-15.071S1415.962,1626.62,1407.638,1626.62z"/>
					<path style="fill:#FFFFFF;" d="M1477.272,1656.762h132.61c8.323,0,15.071-6.747,15.071-15.071s-6.748-15.071-15.071-15.071
						h-132.61c-8.324,0-15.071,6.748-15.071,15.071S1468.948,1656.762,1477.272,1656.762z"/>
					<path style="fill:#FFFFFF;" d="M1205.394,1673.508h-132.609c-8.324,0-15.072,6.748-15.072,15.071v88.752
						c0,8.324,6.748,15.071,15.072,15.071h132.609c8.324,0,15.072-6.747,15.072-15.071v-88.752
						C1220.466,1680.255,1213.718,1673.508,1205.394,1673.508z"/>
					<path style="fill:#FFFFFF;" d="M1407.638,1673.508h-132.61c-8.323,0-15.071,6.748-15.071,15.071v88.752
						c0,8.324,6.748,15.071,15.071,15.071h132.61c8.324,0,15.071-6.747,15.071-15.071v-88.752
						C1422.709,1680.255,1415.962,1673.508,1407.638,1673.508z"/>
					<path style="fill:#FFFFFF;" d="M1609.882,1673.508h-132.61c-8.324,0-15.071,6.748-15.071,15.071v88.752
						c0,8.324,6.748,15.071,15.071,15.071h132.61c8.323,0,15.071-6.747,15.071-15.071v-88.752
						C1624.953,1680.255,1618.205,1673.508,1609.882,1673.508z"/>
				</g>
			</g>
		</g>
		<g>
			<g>
				
					<linearGradient id="SVGID_00000147938335213059842800000009341773847515542410_" gradientUnits="userSpaceOnUse" x1="2929.8906" y1="3049.3877" x2="1976.0712" y2="2080.3484">
					<stop  offset="0" style="stop-color:#4F52FF"/>
					<stop  offset="1" style="stop-color:#4042E2"/>
				</linearGradient>
				<path style="fill:url(#SVGID_00000147938335213059842800000009341773847515542410_);" d="M3027.447,1592.545
					c0,0,204.731,113.413,221.669,305.357c16.938,191.945,1.41,988.629-409.127,1184.714s-953.949,150.894-1161.957,129.458
					c-208.007-21.436-323.338-162.801-349.101-260.134c-25.762-97.333-67.376-459.912,151.443-576.868
					c218.819-116.955,448.644-296.136,678.294-470.609C2388.318,1729.989,2781.887,1445.179,3027.447,1592.545z"/>
				
					<linearGradient id="SVGID_00000090254740427651625060000007703489188965074608_" gradientUnits="userSpaceOnUse" x1="-238.1129" y1="2549.2957" x2="-37.7971" y2="2758.5146" gradientTransform="matrix(-1 0 0 1 1250.9535 0)">
					<stop  offset="0" style="stop-color:#09005D"/>
					<stop  offset="1" style="stop-color:#1A0F91"/>
				</linearGradient>
				<path style="fill:url(#SVGID_00000090254740427651625060000007703489188965074608_);" d="M1544.901,2441.243
					c0,0,55.256,2.922,62.031,116.604c0,0-128.129,114.861-301.206,142.2c-12.994,2.052,18.165-88.698,22.849-100.991
					C1350.863,2540.564,1421.054,2502.894,1544.901,2441.243z"/>
				
					<linearGradient id="SVGID_00000164499606204008605740000014150269757054668964_" gradientUnits="userSpaceOnUse" x1="-547.2921" y1="2341.7627" x2="-338.7212" y2="1556.1464" gradientTransform="matrix(-1 0 0 1 1250.9535 0)">
					<stop  offset="0" style="stop-color:#09005D"/>
					<stop  offset="1" style="stop-color:#1A0F91"/>
				</linearGradient>
				<path style="fill:url(#SVGID_00000164499606204008605740000014150269757054668964_);" d="M2167.2,2307.575h-116.604
					c0,0-357.889-395.255-592.619-435.132c0,0-163.395,208.572,8.703,598.28c13.844,31.349,52.564,45.277,81.446,26.83
					c8.639-5.517,14.842-12.911,18.609-22.183l-13.839-332.748c0,0,305.281,267.002,358.344,318.528
					C1964.303,2512.677,2234.027,2481.272,2167.2,2307.575z"/>
				
					<linearGradient id="SVGID_00000155142760299757853510000010964999960707515525_" gradientUnits="userSpaceOnUse" x1="27.6176" y1="3074.436" x2="406.5222" y2="3352.5308" gradientTransform="matrix(-1 0 0 1 1250.9535 0)">
					<stop  offset="0" style="stop-color:#09005D"/>
					<stop  offset="1" style="stop-color:#1A0F91"/>
				</linearGradient>
				<path style="fill:url(#SVGID_00000155142760299757853510000010964999960707515525_);" d="M1039.885,3137.433
					c48.864-42.817,126.719-90.864,239.113-104.639l38.01,23.25c0,0-24.238,35.752-68.517,73.517
					c-40.696,23.637-103.535,55.651-155.632,62.59C1042.209,3198.897,1034.739,3168.29,1039.885,3137.433z"/>
				<path style="fill:#7D97F4;" d="M1328.575,2599.056c30.103,9.743,43.342,52.392,119.728,24.189
					c73.901-27.285,128.838-62.473,157.102-82.765c0.631,5.499,1.162,11.242,1.527,17.368c0,0-135.099,128.502-308.177,155.84
					c-12.993,2.053-23.291-10.918-18.606-23.21C1288.553,2668.42,1303.707,2634.966,1328.575,2599.056z"/>
				<path style="fill:#7D97F4;" d="M1003.075,3173.996c9.633-10.948,21.928-23.523,36.811-36.563
					c-5.146,30.857,2.324,61.463,52.974,54.718c52.097-6.939,114.936-38.953,155.632-62.59
					c-51.005,43.5-128.612,89.671-226.563,86.96C1000.172,3215.919,988.698,3190.336,1003.075,3173.996z"/>
				
					<linearGradient id="SVGID_00000013179364245121046170000003197506563004414358_" gradientUnits="userSpaceOnUse" x1="33.0605" y1="2546.9717" x2="-759.5101" y2="2845.9233" gradientTransform="matrix(-1 0 0 1 1250.9535 0)">
					<stop  offset="0" style="stop-color:#09005D"/>
					<stop  offset="1" style="stop-color:#1A0F91"/>
				</linearGradient>
				<path style="fill:url(#SVGID_00000013179364245121046170000003197506563004414358_);" d="M2162.934,2391.944l-546.048,5.912
					c0,0-311.833,257.997-368.394,651.402c0,0-9.388,28.934,46.977,33.883c0,0,188.532-123.135,311.463-340.836
					c150.732-266.934,449.351-146.776,449.351-146.776c98.119-70.738,236.763-85.145,341.214-108.711L2162.934,2391.944z"/>
				
					<linearGradient id="SVGID_00000155141005782248874890000012541247771653026746_" gradientUnits="userSpaceOnUse" x1="-584.5454" y1="2046.6541" x2="-841.7835" y2="2352.5586" gradientTransform="matrix(-1 0 0 1 1250.9535 0)">
					<stop  offset="0" style="stop-color:#FEBBBA"/>
					<stop  offset="1" style="stop-color:#FF928E"/>
				</linearGradient>
				<path style="fill:url(#SVGID_00000155141005782248874890000012541247771653026746_);" d="M2150.039,1952.075
					c0,0-58.784,294.595-346.803,411.139l-102.451-12.074l-24.176,38.546l240.319,7.658c0,0,205.424-81.364,314.262-303.069
					C2234.786,2086.95,2294.719,1963.2,2150.039,1952.075z"/>
				
					<linearGradient id="SVGID_00000162345160195636071270000004638060348465308088_" gradientUnits="userSpaceOnUse" x1="1710.277" y1="2780.1526" x2="2440.8979" y2="1988.647">
					<stop  offset="0" style="stop-color:#FF928E"/>
					<stop  offset="1" style="stop-color:#FE7062"/>
				</linearGradient>
				<path style="fill:url(#SVGID_00000162345160195636071270000004638060348465308088_);" d="M2118.538,2387.13
					c0,0,66.846-181.708,81.213-358.266c0,0-48.903-42.028-79.47-60.16c-9.899-5.873-13.636-18.293-8.633-28.658
					c22.473-46.554,158.377-229.352,168.556-231.893c55.334-13.81,282.268-121.71,442.096,96.91
					c68.593,93.824-13.612,382.649-324.803,681.756l-64.198,12.279L2118.538,2387.13z"/>
				
					<linearGradient id="SVGID_00000026137308788067032900000000649890147273369231_" gradientUnits="userSpaceOnUse" x1="-884.4954" y1="2324.9912" x2="-370.3181" y2="1621.5688" gradientTransform="matrix(-1 0 0 1 1250.9535 0)">
					<stop  offset="0" style="stop-color:#FEBBBA"/>
					<stop  offset="1" style="stop-color:#FF928E"/>
				</linearGradient>
				<path style="fill:url(#SVGID_00000026137308788067032900000000649890147273369231_);" d="M2376.115,2068.679
					c0,0-185.719,219.903-423.164,252.05c0,0-61.365-55.946-106.996-35.971c-45.631,19.973-108.199,108.138-108.199,108.138h304.878
					c0,0,288.274-10.157,432.324-184.966C2463.367,2146.761,2428.655,2110.222,2376.115,2068.679z"/>
				
					<linearGradient id="SVGID_00000154426779277521780810000015167249819449805222_" gradientUnits="userSpaceOnUse" x1="2591.7512" y1="2069.6206" x2="2388.8008" y2="1535.184">
					<stop  offset="0" style="stop-color:#FEBBBA"/>
					<stop  offset="1" style="stop-color:#FF928E"/>
				</linearGradient>
				<path style="fill:url(#SVGID_00000154426779277521780810000015167249819449805222_);" d="M2484.46,1553.914l40.637,135.531
					c1.862,6.209-0.438,12.934-5.787,16.597c-19.564,13.4-70.697,40.047-140.843,14.151c-8.022-2.962-13.519-10.454-14.215-18.977
					l-9.633-118.069L2484.46,1553.914z"/>
				<g>
					
						<linearGradient id="SVGID_00000083786972250503597160000002821032397543602595_" gradientUnits="userSpaceOnUse" x1="-1098.0157" y1="1593.3782" x2="-1181.4944" y2="1318.0454" gradientTransform="matrix(-1 0 0 1 1250.9535 0)">
						<stop  offset="0" style="stop-color:#FEBBBA"/>
						<stop  offset="1" style="stop-color:#FF928E"/>
					</linearGradient>
					<path style="fill:url(#SVGID_00000083786972250503597160000002821032397543602595_);" d="M2246.513,1444.154
						c0,0,19.979,140.493,73.948,183.698s159.117,10.673,194.632-95.241l-70.763-181.094L2246.513,1444.154z"/>
					
						<linearGradient id="SVGID_00000013902125816102509660000001880494208814534845_" gradientUnits="userSpaceOnUse" x1="-1173.1781" y1="1088.7809" x2="-1095.7389" y2="1530.4713" gradientTransform="matrix(-1 0 0 1 1250.9535 0)">
						<stop  offset="0" style="stop-color:#09005D"/>
						<stop  offset="1" style="stop-color:#1A0F91"/>
					</linearGradient>
					<path style="fill:url(#SVGID_00000013902125816102509660000001880494208814534845_);" d="M2452.301,1468.704
						c-4.104,1.323-8.403-1.308-9.044-5.573c-1.948-12.969-6.811-38.635-16.656-56.117c0,0,5.15-18.432-46.583,9.412
						c-51.733,27.845-129.436,68.748-175.183,44.392c-44.602-23.748-89.782-143.26,28.094-121.118
						c4.485,0.842,8.609-2.731,8.273-7.282c-1.448-19.642,0.501-64.832,46.262-79.336c42.823-13.573,19.831,8.427,29.491,20.095
						c2.843,3.433-3.588-11.688,57.263-2.843c20.877,3.035,47.667-52.394,98.952-29.793c42.243,18.616,48.813,44.635,48.115,60.849
						c-0.226,5.254,5.106,8.813,9.881,6.614c12.937-5.959,33.747-9.054,53.681,15.922c27.558,34.529-11.823,64.472-23.637,72.322
						c-1.935,1.286-3.139,3.418-3.153,5.742c-0.111,17.957-2.907,96.285-42.165,140.467c-3.399,3.826-9.682,2.704-11.662-2.015
						l-30.227-72.019c-1.404-3.345-5.133-5.059-8.586-3.947L2452.301,1468.704z"/>
					
						<linearGradient id="SVGID_00000015331042993916104410000014101788470856130707_" gradientUnits="userSpaceOnUse" x1="-1184.4822" y1="1619.5945" x2="-1267.9612" y2="1344.261" gradientTransform="matrix(-1 0 0 1 1250.9535 0)">
						<stop  offset="0" style="stop-color:#FEBBBA"/>
						<stop  offset="1" style="stop-color:#FF928E"/>
					</linearGradient>
					<path style="fill:url(#SVGID_00000015331042993916104410000014101788470856130707_);" d="M2451.663,1483.326
						c0,0,18.458-75.18,46.497-50.771c28.039,24.409-7.309,78.132-39.43,88.372L2451.663,1483.326z"/>
				</g>
				
					<linearGradient id="SVGID_00000049916078253634909800000013813634872480170662_" gradientUnits="userSpaceOnUse" x1="2387.7766" y1="898.8068" x2="2032.6307" y2="1441.6732">
					<stop  offset="0" style="stop-color:#4042E2"/>
					<stop  offset="1" style="stop-color:#4F52FF"/>
				</linearGradient>
				<path style="fill:url(#SVGID_00000049916078253634909800000013813634872480170662_);" d="M1753.105,2409.959l-136.89-456.512
					c-5.585-18.625-22.128-31.837-41.527-33.164l-184.819-12.646c-18.786-1.286-32.759,17.066-26.522,34.833l153.03,435.965
					c4.93,14.045,17.538,23.971,32.349,25.468l181.998,20.21L1753.105,2409.959z"/>
				<path style="fill:#91B3FA;" d="M1500.643,2108.17c10.22,20.63,27.869,32.714,39.421,26.992
					c11.551-5.722,12.631-27.085,2.411-47.715c-10.22-20.63-27.869-32.714-39.42-26.992
					C1491.503,2066.178,1490.424,2087.541,1500.643,2108.17z"/>
				
					<linearGradient id="SVGID_00000169517327888884251170000015387194297117517741_" gradientUnits="userSpaceOnUse" x1="1916.3691" y1="1454.2169" x2="1921.4429" y2="2032.5947">
					<stop  offset="0" style="stop-color:#4042E2"/>
					<stop  offset="1" style="stop-color:#4F52FF"/>
				</linearGradient>
				<path style="fill:url(#SVGID_00000169517327888884251170000015387194297117517741_);" d="M1730.724,2424.113
					c0.297,0,0.594-0.007,0.893-0.024l387.798-19.601c9.587-0.482,16.966-8.646,16.482-18.233
					c-0.484-9.59-8.684-17.126-18.237-16.482l-387.798,19.601c-9.587,0.482-16.965,8.647-16.481,18.233
					C1713.851,2416.896,1721.53,2424.113,1730.724,2424.113z"/>
				
					<linearGradient id="SVGID_00000183956364904712264210000000223314416589607842_" gradientUnits="userSpaceOnUse" x1="2196.6711" y1="1933.6003" x2="2234.2722" y2="1933.6003">
					<stop  offset="0" style="stop-color:#E1473D"/>
					<stop  offset="1" style="stop-color:#E9605A"/>
				</linearGradient>
				<path style="fill:url(#SVGID_00000183956364904712264210000000223314416589607842_);" d="M2199.747,2031.937
					c1.692,0,3.086-1.382,3.074-3.086c-0.262-81.014,31.004-188.57,31.326-189.648c0.477-1.626-0.453-3.336-2.085-3.819
					c-1.656-0.465-3.348,0.453-3.825,2.091c-0.322,1.084-31.838,109.48-31.564,191.4
					C2196.673,2030.567,2198.055,2031.937,2199.747,2031.937z"/>
				
					<linearGradient id="SVGID_00000062914270223413462120000000743923036508282761_" gradientUnits="userSpaceOnUse" x1="2373.032" y1="1977.6692" x2="2493.5774" y2="1977.6692">
					<stop  offset="0" style="stop-color:#E1473D"/>
					<stop  offset="1" style="stop-color:#E9605A"/>
				</linearGradient>
				<path style="fill:url(#SVGID_00000062914270223413462120000000743923036508282761_);" d="M2376.11,2071.753
					c0.906,0,1.811-0.399,2.419-1.168c0.846-1.078,85.673-108.896,114.83-182.791c0.632-1.585-0.155-3.372-1.728-3.992
					c-1.585-0.626-3.372,0.143-3.992,1.728c-28.836,73.054-113.091,180.17-113.948,181.242c-1.049,1.334-0.822,3.271,0.512,4.319
					C2374.763,2071.539,2375.442,2071.753,2376.11,2071.753z"/>
				
					<linearGradient id="SVGID_00000098937267792476143760000015806245051205042565_" gradientUnits="userSpaceOnUse" x1="2479.3779" y1="2133.624" x2="2697.345" y2="2133.624">
					<stop  offset="0" style="stop-color:#E1473D"/>
					<stop  offset="1" style="stop-color:#E9605A"/>
				</linearGradient>
				<path style="fill:url(#SVGID_00000098937267792476143760000015806245051205042565_);" d="M2495.468,2236.605l2.288-0.977
					c122.707-52.536,198.501-199.038,199.252-200.51c0.775-1.519,0.167-3.372-1.346-4.141c-1.478-0.763-3.336-0.185-4.135,1.34
					c-0.739,1.448-74.603,144.19-193.914,196.661l-12.642-17.861c-1.001-1.4-2.919-1.71-4.29-0.739
					c-1.394,0.983-1.716,2.902-0.739,4.29L2495.468,2236.605z"/>
			</g>
		</g>
		<g>
			<g>
				<g>
					<path style="fill:#91B3FA;" d="M3122.828,3122.816c0,0,223.352-515.979,54.249-1059.573c-1.104-3.55-7.386-2.868-7.849,0.86
						C3128.462,2392.873,3116.306,2748.935,3122.828,3122.816z"/>
					<path style="fill:#BDD0FB;" d="M3123.718,3111.951c-0.258,0-0.521-0.034-0.779-0.107c-1.527-0.431-2.415-2.017-1.986-3.541
						c39.47-140.214,54.493-378.925,60.146-554.484c6.129-190.317,2.868-349.45,2.835-351.036c-0.034-1.586,1.224-2.896,2.806-2.93
						c0.022,0,0.042,0,0.062,0c1.558,0,2.835,1.244,2.869,2.807c0.033,1.586,3.297,160.876-2.838,351.344
						c-5.664,175.879-20.732,415.083-60.356,555.857C3126.121,3111.127,3124.97,3111.951,3123.718,3111.951z"/>
				</g>
				<g>
					<path style="fill:#91B3FA;" d="M3071.68,3038.726c0,0,137.978-633.092-122.786-1273.746c-1.703-4.183-7.898-2.957-7.738,1.542
						C2955.219,2163.303,3002.581,2590.942,3071.68,3038.726z"/>
					<path style="fill:#BDD0FB;" d="M3070.275,3025.073c-0.089,0-0.182-0.006-0.274-0.011c-1.577-0.152-2.734-1.552-2.583-3.127
						c30.985-326.877-87.06-1082.346-88.256-1089.937c-0.247-1.568,0.824-3.037,2.389-3.283c1.561-0.269,3.031,0.824,3.281,2.387
						c1.196,7.603,119.35,763.777,88.295,1091.372C3072.987,3023.958,3071.738,3025.073,3070.275,3025.073z"/>
				</g>
				<g>
					<path style="fill:#91B3FA;" d="M3049.785,3210.388c0,0,66.105-552.285-262.28-1049.297c-2.145-3.245-8.124-1.26-7.469,2.489
						C2837.862,2494.181,2931.978,2845.516,3049.785,3210.388z"/>
					<path style="fill:#BDD0FB;" d="M3046.566,3199.618c-1.557,0-2.837-1.244-2.868-2.812
						c-2.927-145.62-59.252-382.595-105.991-555.745c-50.666-187.717-101.296-342.945-101.8-344.492
						c-0.493-1.507,0.328-3.126,1.835-3.619c1.507-0.476,3.127,0.336,3.617,1.837c0.507,1.546,51.176,156.893,101.881,344.75
						c46.823,173.47,103.257,410.948,106.195,557.157c0.031,1.58-1.227,2.891-2.809,2.924
						C3046.605,3199.618,3046.586,3199.618,3046.566,3199.618z"/>
				</g>
			</g>
			<g>
				<path style="fill:#7D97F4;" d="M2913.882,2906.071h303.572c19.897,0,34.619,18.51,30.144,37.898
					c-19.422,84.147-42.701,169.526-90.329,256.19c-8.797,16.008-25.548,26.045-43.814,26.045h-99.059
					c-17.989,0-34.496-9.884-43.02-25.725c-38.158-70.908-74.87-155.436-92.995-251.369
					C2874.163,2926.782,2891.16,2906.071,2913.882,2906.071z"/>
			</g>
		</g>
	</g>
</g>
</svg>
